;TYPE=PLATED
;Layer: PTH_Through
;EasyEDA Pro v2.2.35.2, 2025-01-10 12:23:15
;Gerber Generator version 0.3
M48
METRIC,LZ,0000.00000
;Hole size 1 = 0.80000 METRIC
T01C0.80000
;Hole size 2 = 1.00000 METRIC
T02C1.00000
;Hole size 3 = 1.30000 METRIC
T03C1.30000
;Hole size 4 = 2.20000 METRIC
T04C2.20000
%
G05
G90
T01
X7.40006Y22.0
X18.59994Y22.0
X18.59994Y26.0
X7.40006Y26.0
X7.40006Y30.0
X18.59994Y30.0
X27.40006Y22.0
X38.59994Y22.0
X38.59994Y26.0
X27.40006Y26.0
X27.40006Y30.0
X38.59994Y30.0
X47.40006Y22.0
X58.59994Y22.0
X58.59994Y26.0
X47.40006Y26.0
X47.40006Y30.0
X58.59994Y30.0
X67.40006Y22.0
X78.59994Y22.0
X78.59994Y26.0
X67.40006Y26.0
X67.40006Y30.0
X78.59994Y30.0
T02
X4.0Y30.08
X4.0Y27.54
X4.0Y25.0
X4.0Y22.46
X4.0Y35.16
X4.0Y32.62
T03
X8.0Y6.0
X13.0Y6.0
X18.0Y6.0
X8.0Y14.2
X13.0Y14.2
X18.0Y14.2
X17.0Y36.8
X12.0Y36.8
X17.0Y45.0
X12.0Y45.0
X86.8Y34.0
X86.8Y39.0
X95.0Y34.0
X95.0Y39.0
X86.8Y20.0
X86.8Y25.0
X95.0Y20.0
X95.0Y25.0
X28.0Y6.0
X33.0Y6.0
X38.0Y6.0
X28.0Y14.2
X33.0Y14.2
X38.0Y14.2
X37.0Y36.8
X32.0Y36.8
X37.0Y45.0
X32.0Y45.0
X48.0Y6.0
X53.0Y6.0
X58.0Y6.0
X48.0Y14.2
X53.0Y14.2
X58.0Y14.2
X57.0Y36.8
X52.0Y36.8
X57.0Y45.0
X52.0Y45.0
X68.0Y6.0
X73.0Y6.0
X78.0Y6.0
X68.0Y14.2
X73.0Y14.2
X78.0Y14.2
X77.0Y36.8
X72.0Y36.8
X77.0Y45.0
X72.0Y45.0
T04
X3.0Y3.0
X3.0Y47.0
X97.0Y47.0
X97.0Y3.0
M30