G04 Layer: BottomSolderMaskLayer*
G04 EasyEDA Pro v2.2.35.2, 2025-01-10 12:23:15*
G04 Gerber Generator version 0.3*
G04 Scale: 100 percent, Rotated: No, Reflected: No*
G04 Dimensions in millimeters*
G04 Leading zeros omitted, absolute positions, 4 integers and 5 decimals*
%FSLAX45Y45*%
%MOMM*%
%ADD10C,3.1016*%
%ADD11C,1.5016*%
%ADD12C,2.1016*%
%ADD13C,1.5*%
G75*


G04 Pad Start*
G54D10*
G01X300000Y300000D03*
G01X300000Y4700000D03*
G01X9700000Y4700000D03*
G01X9700000Y300000D03*
G54D11*
G01X400000Y3008000D03*
G01X400000Y2754000D03*
G01X400000Y2500000D03*
G01X400000Y2246000D03*
G01X400000Y3516000D03*
G01X400000Y3262000D03*
G54D12*
G01X800000Y600000D03*
G01X1300000Y600000D03*
G01X1800000Y600000D03*
G01X800000Y1420000D03*
G01X1300000Y1420000D03*
G01X1800000Y1420000D03*
G54D13*
G01X740006Y2200000D03*
G01X1859994Y2200000D03*
G01X1859994Y2600000D03*
G01X740006Y2600000D03*
G01X740006Y3000000D03*
G01X1859994Y3000000D03*
G54D12*
G01X1700000Y3680000D03*
G01X1200000Y3680000D03*
G01X1700000Y4500000D03*
G01X1200000Y4500000D03*
G01X8680000Y3400000D03*
G01X8680000Y3900000D03*
G01X9500000Y3400000D03*
G01X9500000Y3900000D03*
G01X8680000Y2000000D03*
G01X8680000Y2500000D03*
G01X9500000Y2000000D03*
G01X9500000Y2500000D03*
G01X2800000Y600000D03*
G01X3300000Y600000D03*
G01X3800000Y600000D03*
G01X2800000Y1420000D03*
G01X3300000Y1420000D03*
G01X3800000Y1420000D03*
G54D13*
G01X2740006Y2200000D03*
G01X3859994Y2200000D03*
G01X3859994Y2600000D03*
G01X2740006Y2600000D03*
G01X2740006Y3000000D03*
G01X3859994Y3000000D03*
G54D12*
G01X3700000Y3680000D03*
G01X3200000Y3680000D03*
G01X3700000Y4500000D03*
G01X3200000Y4500000D03*
G01X4800000Y600000D03*
G01X5300000Y600000D03*
G01X5800000Y600000D03*
G01X4800000Y1420000D03*
G01X5300000Y1420000D03*
G01X5800000Y1420000D03*
G54D13*
G01X4740006Y2200000D03*
G01X5859994Y2200000D03*
G01X5859994Y2600000D03*
G01X4740006Y2600000D03*
G01X4740006Y3000000D03*
G01X5859994Y3000000D03*
G54D12*
G01X5700000Y3680000D03*
G01X5200000Y3680000D03*
G01X5700000Y4500000D03*
G01X5200000Y4500000D03*
G01X6800000Y600000D03*
G01X7300000Y600000D03*
G01X7800000Y600000D03*
G01X6800000Y1420000D03*
G01X7300000Y1420000D03*
G01X7800000Y1420000D03*
G54D13*
G01X6740006Y2200000D03*
G01X7859994Y2200000D03*
G01X7859994Y2600000D03*
G01X6740006Y2600000D03*
G01X6740006Y3000000D03*
G01X7859994Y3000000D03*
G54D12*
G01X7700000Y3680000D03*
G01X7200000Y3680000D03*
G01X7700000Y4500000D03*
G01X7200000Y4500000D03*
G04 Pad End*

M02*

