G04 Layer: TopSilkscreenLayer*
G04 EasyEDA Pro v2.2.35.2, 2025-01-10 12:23:15*
G04 Gerber Generator version 0.3*
G04 Scale: 100 percent, Rotated: No, Reflected: No*
G04 Dimensions in millimeters*
G04 Leading zeros omitted, absolute positions, 4 integers and 5 decimals*
%FSLAX45Y45*%
%MOMM*%
%ADD10C,0.203*%
%ADD11C,0.152*%
%ADD12C,0.1524*%
%ADD13C,0.254*%
G75*


G04 Text Start*
G54D10*
G01X6753860Y1970786D02*
G01X6798818Y1852930D01*
G01X6843776Y1970786D02*
G01X6798818Y1852930D01*
G01X6941566Y1954022D02*
G01X6941566Y1852930D01*
G01X6891020Y1903476D02*
G01X6992112Y1903476D01*
G01X4734560Y1970786D02*
G01X4779518Y1852930D01*
G01X4824476Y1970786D02*
G01X4779518Y1852930D01*
G01X4922266Y1954022D02*
G01X4922266Y1852930D01*
G01X4871720Y1903476D02*
G01X4972812Y1903476D01*
G01X2715260Y1970786D02*
G01X2760218Y1852930D01*
G01X2805176Y1970786D02*
G01X2760218Y1852930D01*
G01X2902966Y1954022D02*
G01X2902966Y1852930D01*
G01X2852420Y1903476D02*
G01X2953512Y1903476D01*
G01X680979Y1972386D02*
G01X725937Y1854530D01*
G01X770895Y1972386D02*
G01X725937Y1854530D01*
G01X868685Y1955622D02*
G01X868685Y1854530D01*
G01X818139Y1905076D02*
G01X919231Y1905076D01*
G01X3210560Y1958086D02*
G01X3210560Y1840230D01*
G01X3257804Y1958086D02*
G01X3257804Y1840230D01*
G01X3257804Y1958086D02*
G01X3336544Y1840230D01*
G01X3336544Y1958086D02*
G01X3336544Y1840230D01*
G01X3434334Y1941322D02*
G01X3434334Y1840230D01*
G01X3383788Y1890776D02*
G01X3484880Y1890776D01*
G01X5171445Y1959686D02*
G01X5171445Y1841830D01*
G01X5218689Y1959686D02*
G01X5218689Y1841830D01*
G01X5218689Y1959686D02*
G01X5297429Y1841830D01*
G01X5297429Y1959686D02*
G01X5297429Y1841830D01*
G01X5395219Y1942922D02*
G01X5395219Y1841830D01*
G01X5344673Y1892376D02*
G01X5445765Y1892376D01*
G01X7178045Y1972386D02*
G01X7178045Y1854530D01*
G01X7225289Y1972386D02*
G01X7225289Y1854530D01*
G01X7225289Y1972386D02*
G01X7304029Y1854530D01*
G01X7304029Y1972386D02*
G01X7304029Y1854530D01*
G01X7401819Y1955622D02*
G01X7401819Y1854530D01*
G01X7351273Y1905076D02*
G01X7452365Y1905076D01*
G01X1170945Y1972386D02*
G01X1170945Y1854530D01*
G01X1218189Y1972386D02*
G01X1218189Y1854530D01*
G01X1218189Y1972386D02*
G01X1296929Y1854530D01*
G01X1296929Y1972386D02*
G01X1296929Y1854530D01*
G01X1394719Y1955622D02*
G01X1394719Y1854530D01*
G01X1344173Y1905076D02*
G01X1445265Y1905076D01*
G01X1691645Y1972386D02*
G01X1691645Y1854530D01*
G01X1738889Y1972386D02*
G01X1738889Y1854530D01*
G01X1738889Y1972386D02*
G01X1817629Y1854530D01*
G01X1817629Y1972386D02*
G01X1817629Y1854530D01*
G01X1864873Y1905076D02*
G01X1965965Y1905076D01*
G01X3698245Y1959686D02*
G01X3698245Y1841830D01*
G01X3745489Y1959686D02*
G01X3745489Y1841830D01*
G01X3745489Y1959686D02*
G01X3824229Y1841830D01*
G01X3824229Y1959686D02*
G01X3824229Y1841830D01*
G01X3871473Y1892376D02*
G01X3972565Y1892376D01*
G01X5699760Y1958086D02*
G01X5699760Y1840230D01*
G01X5747004Y1958086D02*
G01X5747004Y1840230D01*
G01X5747004Y1958086D02*
G01X5825744Y1840230D01*
G01X5825744Y1958086D02*
G01X5825744Y1840230D01*
G01X5872988Y1890776D02*
G01X5974080Y1890776D01*
G01X7706360Y1970786D02*
G01X7706360Y1852930D01*
G01X7753604Y1970786D02*
G01X7753604Y1852930D01*
G01X7753604Y1970786D02*
G01X7832344Y1852930D01*
G01X7832344Y1970786D02*
G01X7832344Y1852930D01*
G01X7879588Y1903476D02*
G01X7980680Y1903476D01*
G01X8989060Y1589786D02*
G01X9034018Y1471930D01*
G01X9078976Y1589786D02*
G01X9034018Y1471930D01*
G01X9176766Y1573022D02*
G01X9176766Y1471930D01*
G01X9126220Y1522476D02*
G01X9227312Y1522476D01*
G01X8976360Y4574286D02*
G01X9021318Y4456430D01*
G01X9066276Y4574286D02*
G01X9021318Y4456430D01*
G01X9113520Y4506976D02*
G01X9214612Y4506976D01*
G01X1185418Y3304286D02*
G01X1140460Y3186430D01*
G01X1185418Y3304286D02*
G01X1230376Y3186430D01*
G01X1157224Y3225546D02*
G01X1213358Y3225546D01*
G01X1673860Y3291586D02*
G01X1673860Y3173730D01*
G01X1673860Y3291586D02*
G01X1724406Y3291586D01*
G01X1741170Y3285998D01*
G01X1746758Y3280410D01*
G01X1752346Y3269234D01*
G01X1752346Y3257804D01*
G01X1746758Y3246628D01*
G01X1741170Y3241040D01*
G01X1724406Y3235452D01*
G01X1673860Y3235452D02*
G01X1724406Y3235452D01*
G01X1741170Y3229864D01*
G01X1746758Y3224276D01*
G01X1752346Y3212846D01*
G01X1752346Y3196082D01*
G01X1746758Y3184906D01*
G01X1741170Y3179318D01*
G01X1724406Y3173730D01*
G01X1673860Y3173730D01*
G01X3192018Y3304286D02*
G01X3147060Y3186430D01*
G01X3192018Y3304286D02*
G01X3236976Y3186430D01*
G01X3163824Y3225546D02*
G01X3219958Y3225546D01*
G01X3680460Y3304286D02*
G01X3680460Y3186430D01*
G01X3680460Y3304286D02*
G01X3731006Y3304286D01*
G01X3747770Y3298698D01*
G01X3753358Y3293110D01*
G01X3758946Y3281934D01*
G01X3758946Y3270504D01*
G01X3753358Y3259328D01*
G01X3747770Y3253740D01*
G01X3731006Y3248152D01*
G01X3680460Y3248152D02*
G01X3731006Y3248152D01*
G01X3747770Y3242564D01*
G01X3753358Y3236976D01*
G01X3758946Y3225546D01*
G01X3758946Y3208782D01*
G01X3753358Y3197606D01*
G01X3747770Y3192018D01*
G01X3731006Y3186430D01*
G01X3680460Y3186430D01*
G01X5198618Y3316986D02*
G01X5153660Y3199130D01*
G01X5198618Y3316986D02*
G01X5243576Y3199130D01*
G01X5170424Y3238246D02*
G01X5226558Y3238246D01*
G01X5674360Y3316986D02*
G01X5674360Y3199130D01*
G01X5674360Y3316986D02*
G01X5724906Y3316986D01*
G01X5741670Y3311398D01*
G01X5747258Y3305810D01*
G01X5752846Y3294634D01*
G01X5752846Y3283204D01*
G01X5747258Y3272028D01*
G01X5741670Y3266440D01*
G01X5724906Y3260852D01*
G01X5674360Y3260852D02*
G01X5724906Y3260852D01*
G01X5741670Y3255264D01*
G01X5747258Y3249676D01*
G01X5752846Y3238246D01*
G01X5752846Y3221482D01*
G01X5747258Y3210306D01*
G01X5741670Y3204718D01*
G01X5724906Y3199130D01*
G01X5674360Y3199130D01*
G01X7192518Y3329686D02*
G01X7147560Y3211830D01*
G01X7192518Y3329686D02*
G01X7237476Y3211830D01*
G01X7164324Y3250946D02*
G01X7220458Y3250946D01*
G01X7680960Y3316986D02*
G01X7680960Y3199130D01*
G01X7680960Y3316986D02*
G01X7731506Y3316986D01*
G01X7748270Y3311398D01*
G01X7753858Y3305810D01*
G01X7759446Y3294634D01*
G01X7759446Y3283204D01*
G01X7753858Y3272028D01*
G01X7748270Y3266440D01*
G01X7731506Y3260852D01*
G01X7680960Y3260852D02*
G01X7731506Y3260852D01*
G01X7748270Y3255264D01*
G01X7753858Y3249676D01*
G01X7759446Y3238246D01*
G01X7759446Y3221482D01*
G01X7753858Y3210306D01*
G01X7748270Y3204718D01*
G01X7731506Y3199130D01*
G01X7680960Y3199130D01*
G54D11*
G01X1975080Y3270366D02*
G01X1975080Y3316848D01*
G01X1972032Y3325992D01*
G01X1965936Y3332342D01*
G01X1956538Y3335390D01*
G01X1950442Y3335390D01*
G01X1941044Y3332342D01*
G01X1934948Y3325992D01*
G01X1931646Y3316848D01*
G01X1931646Y3270366D01*
G01X1864336Y3270366D02*
G01X1895324Y3270366D01*
G01X1898372Y3298052D01*
G01X1895324Y3295004D01*
G01X1886180Y3291956D01*
G01X1876782Y3291956D01*
G01X1867638Y3295004D01*
G01X1861288Y3301354D01*
G01X1858240Y3310498D01*
G01X1858240Y3316848D01*
G01X1861288Y3325992D01*
G01X1867638Y3332342D01*
G01X1876782Y3335390D01*
G01X1886180Y3335390D01*
G01X1895324Y3332342D01*
G01X1898372Y3329040D01*
G01X1901674Y3322944D01*
G01X8270366Y3124920D02*
G01X8316848Y3124920D01*
G01X8325992Y3127968D01*
G01X8332342Y3134064D01*
G01X8335390Y3143462D01*
G01X8335390Y3149558D01*
G01X8332342Y3158956D01*
G01X8325992Y3165052D01*
G01X8316848Y3168354D01*
G01X8270366Y3168354D01*
G01X8282558Y3198326D02*
G01X8279510Y3204676D01*
G01X8270366Y3213820D01*
G01X8335390Y3213820D01*
G01X8270366Y3262588D02*
G01X8273414Y3253190D01*
G01X8282558Y3247094D01*
G01X8298052Y3243792D01*
G01X8307450Y3243792D01*
G01X8322944Y3247094D01*
G01X8332342Y3253190D01*
G01X8335390Y3262588D01*
G01X8335390Y3268684D01*
G01X8332342Y3277828D01*
G01X8322944Y3284178D01*
G01X8307450Y3287226D01*
G01X8298052Y3287226D01*
G01X8282558Y3284178D01*
G01X8273414Y3277828D01*
G01X8270366Y3268684D01*
G01X8270366Y3262588D01*
G01X8270366Y1724920D02*
G01X8316848Y1724920D01*
G01X8325992Y1727968D01*
G01X8332342Y1734064D01*
G01X8335390Y1743462D01*
G01X8335390Y1749558D01*
G01X8332342Y1758956D01*
G01X8325992Y1765052D01*
G01X8316848Y1768354D01*
G01X8270366Y1768354D01*
G01X8291956Y1838712D02*
G01X8301354Y1835664D01*
G01X8307450Y1829314D01*
G01X8310498Y1820170D01*
G01X8310498Y1817122D01*
G01X8307450Y1807724D01*
G01X8301354Y1801628D01*
G01X8291956Y1798326D01*
G01X8288908Y1798326D01*
G01X8279510Y1801628D01*
G01X8273414Y1807724D01*
G01X8270366Y1817122D01*
G01X8270366Y1820170D01*
G01X8273414Y1829314D01*
G01X8279510Y1835664D01*
G01X8291956Y1838712D01*
G01X8307450Y1838712D01*
G01X8322944Y1835664D01*
G01X8332342Y1829314D01*
G01X8335390Y1820170D01*
G01X8335390Y1813820D01*
G01X8332342Y1804676D01*
G01X8325992Y1801628D01*
G01X3975080Y3270366D02*
G01X3975080Y3316848D01*
G01X3972032Y3325992D01*
G01X3965936Y3332342D01*
G01X3956538Y3335390D01*
G01X3950442Y3335390D01*
G01X3941044Y3332342D01*
G01X3934948Y3325992D01*
G01X3931646Y3316848D01*
G01X3931646Y3270366D01*
G01X3864336Y3279510D02*
G01X3867638Y3273414D01*
G01X3876782Y3270366D01*
G01X3882878Y3270366D01*
G01X3892276Y3273414D01*
G01X3898372Y3282558D01*
G01X3901674Y3298052D01*
G01X3901674Y3313546D01*
G01X3898372Y3325992D01*
G01X3892276Y3332342D01*
G01X3882878Y3335390D01*
G01X3879830Y3335390D01*
G01X3870686Y3332342D01*
G01X3864336Y3325992D01*
G01X3861288Y3316848D01*
G01X3861288Y3313546D01*
G01X3864336Y3304402D01*
G01X3870686Y3298052D01*
G01X3879830Y3295004D01*
G01X3882878Y3295004D01*
G01X3892276Y3298052D01*
G01X3898372Y3304402D01*
G01X3901674Y3313546D01*
G01X5975080Y3270366D02*
G01X5975080Y3316848D01*
G01X5972032Y3325992D01*
G01X5965936Y3332342D01*
G01X5956538Y3335390D01*
G01X5950442Y3335390D01*
G01X5941044Y3332342D01*
G01X5934948Y3325992D01*
G01X5931646Y3316848D01*
G01X5931646Y3270366D01*
G01X5858240Y3270366D02*
G01X5889228Y3335390D01*
G01X5901674Y3270366D02*
G01X5858240Y3270366D01*
G01X7975080Y3270366D02*
G01X7975080Y3316848D01*
G01X7972032Y3325992D01*
G01X7965936Y3332342D01*
G01X7956538Y3335390D01*
G01X7950442Y3335390D01*
G01X7941044Y3332342D01*
G01X7934948Y3325992D01*
G01X7931646Y3316848D01*
G01X7931646Y3270366D01*
G01X7886180Y3270366D02*
G01X7895324Y3273414D01*
G01X7898372Y3279510D01*
G01X7898372Y3285860D01*
G01X7895324Y3291956D01*
G01X7889228Y3295004D01*
G01X7876782Y3298052D01*
G01X7867638Y3301354D01*
G01X7861288Y3307450D01*
G01X7858240Y3313546D01*
G01X7858240Y3322944D01*
G01X7861288Y3329040D01*
G01X7864336Y3332342D01*
G01X7873734Y3335390D01*
G01X7886180Y3335390D01*
G01X7895324Y3332342D01*
G01X7898372Y3329040D01*
G01X7901674Y3322944D01*
G01X7901674Y3313546D01*
G01X7898372Y3307450D01*
G01X7892276Y3301354D01*
G01X7882878Y3298052D01*
G01X7870686Y3295004D01*
G01X7864336Y3291956D01*
G01X7861288Y3285860D01*
G01X7861288Y3279510D01*
G01X7864336Y3273414D01*
G01X7873734Y3270366D01*
G01X7886180Y3270366D01*
G04 Text End*

G04 PolygonModel Start*
G54D12*
G01X1617619Y2077381D02*
G01X982381Y2077381D01*
G01X982381Y2077381D02*
G01X982381Y2322618D01*
G01X982381Y2322618D02*
G01X1617619Y2322618D01*
G01X1617619Y2322618D02*
G01X1617619Y2077381D01*
G01X982381Y2722618D02*
G01X1617619Y2722618D01*
G01X1617619Y2722618D02*
G01X1617619Y2477381D01*
G01X1617619Y2477381D02*
G01X982381Y2477381D01*
G01X982381Y2477381D02*
G01X982381Y2722618D01*
G01X1617619Y2877382D02*
G01X982381Y2877382D01*
G01X982381Y2877382D02*
G01X982381Y3122619D01*
G01X982381Y3122619D02*
G01X1617619Y3122619D01*
G01X1617619Y3122619D02*
G01X1617619Y2877382D01*
G01X3617619Y2077381D02*
G01X2982381Y2077381D01*
G01X2982381Y2077381D02*
G01X2982381Y2322618D01*
G01X2982381Y2322618D02*
G01X3617619Y2322618D01*
G01X3617619Y2322618D02*
G01X3617619Y2077381D01*
G01X2982381Y2722618D02*
G01X3617619Y2722618D01*
G01X3617619Y2722618D02*
G01X3617619Y2477381D01*
G01X3617619Y2477381D02*
G01X2982381Y2477381D01*
G01X2982381Y2477381D02*
G01X2982381Y2722618D01*
G01X3617619Y2877382D02*
G01X2982381Y2877382D01*
G01X2982381Y2877382D02*
G01X2982381Y3122619D01*
G01X2982381Y3122619D02*
G01X3617619Y3122619D01*
G01X3617619Y3122619D02*
G01X3617619Y2877382D01*
G01X5617619Y2077381D02*
G01X4982381Y2077381D01*
G01X4982381Y2077381D02*
G01X4982381Y2322618D01*
G01X4982381Y2322618D02*
G01X5617619Y2322618D01*
G01X5617619Y2322618D02*
G01X5617619Y2077381D01*
G01X4982381Y2722618D02*
G01X5617619Y2722618D01*
G01X5617619Y2722618D02*
G01X5617619Y2477381D01*
G01X5617619Y2477381D02*
G01X4982381Y2477381D01*
G01X4982381Y2477381D02*
G01X4982381Y2722618D01*
G01X5617619Y2877382D02*
G01X4982381Y2877382D01*
G01X4982381Y2877382D02*
G01X4982381Y3122619D01*
G01X4982381Y3122619D02*
G01X5617619Y3122619D01*
G01X5617619Y3122619D02*
G01X5617619Y2877382D01*
G01X7617619Y2077381D02*
G01X6982380Y2077381D01*
G01X6982380Y2077381D02*
G01X6982380Y2322618D01*
G01X6982380Y2322618D02*
G01X7617619Y2322618D01*
G01X7617619Y2322618D02*
G01X7617619Y2077381D01*
G01X6982380Y2722618D02*
G01X7617619Y2722618D01*
G01X7617619Y2722618D02*
G01X7617619Y2477381D01*
G01X7617619Y2477381D02*
G01X6982380Y2477381D01*
G01X6982380Y2477381D02*
G01X6982380Y2722618D01*
G01X7617619Y2877382D02*
G01X6982380Y2877382D01*
G01X6982380Y2877382D02*
G01X6982380Y3122619D01*
G01X6982380Y3122619D02*
G01X7617619Y3122619D01*
G01X7617619Y3122619D02*
G01X7617619Y2877382D01*

G04 Rect Start*
G54D13*
G01X530000Y80000D02*
G01X530000Y1710000D01*
G01X2270000Y1710000D01*
G01X2270000Y80000D01*
G01X530000Y80000D01*
G01X1970000Y5020000D02*
G01X1970000Y3390000D01*
G01X730000Y3390000D01*
G01X730000Y5020000D01*
G01X1970000Y5020000D01*
G01X10020000Y3130000D02*
G01X8390000Y3130000D01*
G01X8390000Y4370000D01*
G01X10020000Y4370000D01*
G01X10020000Y3130000D01*
G01X10020000Y1730000D02*
G01X8390000Y1730000D01*
G01X8390000Y2970000D01*
G01X10020000Y2970000D01*
G01X10020000Y1730000D01*
G01X2530000Y80000D02*
G01X2530000Y1710000D01*
G01X4270000Y1710000D01*
G01X4270000Y80000D01*
G01X2530000Y80000D01*
G01X3970000Y5020000D02*
G01X3970000Y3390000D01*
G01X2730000Y3390000D01*
G01X2730000Y5020000D01*
G01X3970000Y5020000D01*
G01X4530000Y80000D02*
G01X4530000Y1710000D01*
G01X6270000Y1710000D01*
G01X6270000Y80000D01*
G01X4530000Y80000D01*
G01X5970000Y5020000D02*
G01X5970000Y3390000D01*
G01X4730000Y3390000D01*
G01X4730000Y5020000D01*
G01X5970000Y5020000D01*
G01X6530000Y80000D02*
G01X6530000Y1710000D01*
G01X8270000Y1710000D01*
G01X8270000Y80000D01*
G01X6530000Y80000D01*
G01X7970000Y5020000D02*
G01X7970000Y3390000D01*
G01X6730000Y3390000D01*
G01X6730000Y5020000D01*
G01X7970000Y5020000D01*
G04 Rect End*

M02*

